<mxfile host="65bd71144e" scale="6" border="0">
    <diagram id="I4dKGTPQtQzw9f7KV-TR" name="Page-1">
        <mxGraphModel dx="1002" dy="571" grid="1" gridSize="10" guides="1" tooltips="1" connect="1" arrows="1" fold="1" page="1" pageScale="1" pageWidth="850" pageHeight="1100" background="#ffffff" math="0" shadow="0">
            <root>
                <mxCell id="0"/>
                <mxCell id="1" parent="0"/>
                <mxCell id="134" value="" style="rounded=1;whiteSpace=wrap;html=1;strokeWidth=1;fontFamily=Helvetica;fontSize=16;align=left;verticalAlign=top;spacingRight=0;spacingLeft=12;spacingTop=5;spacing=0;absoluteArcSize=1;arcSize=15;fontStyle=2;shadow=0;strokeColor=#9673a6;fillColor=#964a8b;opacity=60;" parent="1" vertex="1">
                    <mxGeometry x="662" y="140" width="130" height="130" as="geometry"/>
                </mxCell>
                <mxCell id="425" value="" style="rounded=1;whiteSpace=wrap;html=1;strokeWidth=1;fontFamily=Helvetica;fontSize=16;align=left;verticalAlign=top;spacingRight=0;spacingLeft=12;spacingTop=5;spacing=0;absoluteArcSize=1;arcSize=15;fontStyle=2;shadow=0;strokeColor=#9673a6;fillColor=#964a8b;" parent="1" vertex="1">
                    <mxGeometry x="662" y="140" width="60" height="130" as="geometry"/>
                </mxCell>
                <mxCell id="112" value="" style="rounded=1;whiteSpace=wrap;html=1;strokeWidth=1;fontFamily=Helvetica;fontSize=16;align=left;verticalAlign=top;spacingRight=0;spacingLeft=12;spacingTop=5;spacing=0;absoluteArcSize=1;arcSize=15;fontStyle=2;shadow=0;strokeColor=#3F90DA;fillColor=#5790fc;opacity=40;" parent="1" vertex="1">
                    <mxGeometry x="220" y="140" width="180" height="130" as="geometry"/>
                </mxCell>
                <mxCell id="423" value="" style="rounded=1;whiteSpace=wrap;html=1;fillColor=#5790FC;strokeColor=#6c8ebf;arcSize=6;" parent="1" vertex="1">
                    <mxGeometry x="290" y="140" width="110" height="130" as="geometry"/>
                </mxCell>
                <mxCell id="127" value="" style="rounded=1;whiteSpace=wrap;html=1;strokeWidth=1;fontFamily=Helvetica;fontSize=16;align=left;verticalAlign=top;spacingRight=0;spacingLeft=12;spacingTop=5;spacing=0;absoluteArcSize=1;arcSize=15;fontStyle=2;shadow=0;strokeColor=#d79b00;fillColor=#f89c20;opacity=40;" parent="1" vertex="1">
                    <mxGeometry x="220" y="330" width="200" height="130" as="geometry"/>
                </mxCell>
                <mxCell id="422" value="" style="rounded=1;whiteSpace=wrap;html=1;fillColor=#F89C20;strokeColor=#d79b00;arcSize=6;" parent="1" vertex="1">
                    <mxGeometry x="290" y="330" width="130" height="130" as="geometry"/>
                </mxCell>
                <mxCell id="300" value="" style="endArrow=classic;dashed=1;html=1;strokeWidth=2;fontSize=16;fontFamily=Helvetica;shadow=0;endFill=1;" parent="1" edge="1">
                    <mxGeometry width="50" height="50" relative="1" as="geometry">
                        <mxPoint x="90" y="230" as="sourcePoint"/>
                        <mxPoint x="840" y="230" as="targetPoint"/>
                    </mxGeometry>
                </mxCell>
                <mxCell id="221" value="" style="endArrow=classic;dashed=1;html=1;strokeWidth=2;fontSize=16;fontFamily=Helvetica;shadow=0;endFill=1;startArrow=none;" parent="1" source="226" edge="1">
                    <mxGeometry width="50" height="50" relative="1" as="geometry">
                        <mxPoint x="170" y="370" as="sourcePoint"/>
                        <mxPoint x="840" y="370" as="targetPoint"/>
                    </mxGeometry>
                </mxCell>
                <mxCell id="222" value="" style="endArrow=classic;dashed=1;html=1;strokeWidth=2;fontSize=16;fontFamily=Helvetica;shadow=0;endFill=1;" parent="1" edge="1">
                    <mxGeometry width="50" height="50" relative="1" as="geometry">
                        <mxPoint x="90" y="440" as="sourcePoint"/>
                        <mxPoint x="840" y="440" as="targetPoint"/>
                    </mxGeometry>
                </mxCell>
                <mxCell id="223" value="" style="endArrow=classic;dashed=1;html=1;strokeWidth=2;fontSize=16;fontFamily=Helvetica;shadow=0;endFill=1;" parent="1" edge="1">
                    <mxGeometry width="50" height="50" relative="1" as="geometry">
                        <mxPoint x="90" y="510" as="sourcePoint"/>
                        <mxPoint x="840" y="510" as="targetPoint"/>
                    </mxGeometry>
                </mxCell>
                <mxCell id="219" value="" style="endArrow=classic;dashed=1;html=1;strokeWidth=2;fontSize=16;fontFamily=Helvetica;shadow=0;endFill=1;" parent="1" edge="1">
                    <mxGeometry width="50" height="50" relative="1" as="geometry">
                        <mxPoint x="90" y="160" as="sourcePoint"/>
                        <mxPoint x="840" y="160" as="targetPoint"/>
                    </mxGeometry>
                </mxCell>
                <mxCell id="218" value="" style="endArrow=classic;dashed=1;html=1;strokeWidth=2;fontSize=16;fontFamily=Helvetica;shadow=0;endFill=1;" parent="1" edge="1">
                    <mxGeometry width="50" height="50" relative="1" as="geometry">
                        <mxPoint x="90" y="90" as="sourcePoint"/>
                        <mxPoint x="840" y="90" as="targetPoint"/>
                    </mxGeometry>
                </mxCell>
                <mxCell id="39" value="S2" style="edgeStyle=none;html=1;strokeWidth=1;fontSize=16;fontFamily=Helvetica;shadow=0;" parent="1" edge="1">
                    <mxGeometry x="-0.08" y="16" relative="1" as="geometry">
                        <mxPoint x="652.5" y="90" as="sourcePoint"/>
                        <mxPoint x="670" y="160" as="targetPoint"/>
                        <mxPoint as="offset"/>
                    </mxGeometry>
                </mxCell>
                <mxCell id="68" value="Server CNPU" style="text;html=1;align=center;verticalAlign=middle;whiteSpace=wrap;rounded=0;fontStyle=2;fontSize=16;fontFamily=Helvetica;shadow=0;" parent="1" vertex="1">
                    <mxGeometry x="20" y="75" width="60" height="30" as="geometry"/>
                </mxCell>
                <mxCell id="69" value="Server&lt;br style=&quot;font-size: 16px;&quot;&gt;QNPU" style="text;html=1;align=center;verticalAlign=middle;whiteSpace=wrap;rounded=0;fontStyle=2;fontSize=16;fontFamily=Helvetica;shadow=0;" parent="1" vertex="1">
                    <mxGeometry x="20" y="144.38" width="60" height="30" as="geometry"/>
                </mxCell>
                <mxCell id="70" value="Server QDevice" style="text;html=1;align=center;verticalAlign=middle;whiteSpace=wrap;rounded=0;fontStyle=2;fontSize=16;fontFamily=Helvetica;shadow=0;" parent="1" vertex="1">
                    <mxGeometry x="20" y="215" width="60" height="30" as="geometry"/>
                </mxCell>
                <mxCell id="195" value="S1" style="edgeStyle=none;html=1;shadow=0;strokeWidth=1;fontFamily=Helvetica;fontSize=16;fontColor=#000000;strokeColor=#000000;labelBackgroundColor=none;entryX=0;entryY=0.5;entryDx=0;entryDy=0;" parent="1" target="117" edge="1">
                    <mxGeometry x="-0.08" y="16" relative="1" as="geometry">
                        <mxPoint x="200" y="90" as="sourcePoint"/>
                        <mxPoint x="220" y="160" as="targetPoint"/>
                        <mxPoint as="offset"/>
                    </mxGeometry>
                </mxCell>
                <mxCell id="196" value="&quot;S1 finished&quot;" style="edgeStyle=none;html=1;shadow=0;strokeWidth=1;fontFamily=Helvetica;fontSize=16;fontColor=#000000;labelBackgroundColor=none;exitX=1;exitY=0.5;exitDx=0;exitDy=0;" parent="1" source="117" edge="1">
                    <mxGeometry x="0.248" y="-19" relative="1" as="geometry">
                        <mxPoint x="400" y="160" as="sourcePoint"/>
                        <mxPoint x="410" y="90" as="targetPoint"/>
                        <mxPoint as="offset"/>
                    </mxGeometry>
                </mxCell>
                <mxCell id="128" value="Execute C1" style="rounded=1;whiteSpace=wrap;html=1;fontFamily=Helvetica;fontSize=16;fillColor=default;strokeColor=#000000;fontColor=#D79B00;shadow=0;" parent="1" vertex="1">
                    <mxGeometry x="230" y="430" width="185" height="20" as="geometry"/>
                </mxCell>
                <mxCell id="139" value="&lt;span style=&quot;text-wrap: wrap; font-size: 16px;&quot;&gt;S2&amp;nbsp;&lt;/span&gt;&lt;span style=&quot;text-wrap: wrap; font-size: 16px;&quot;&gt;result:&amp;nbsp;&lt;/span&gt;&lt;i style=&quot;text-wrap: wrap; font-size: 16px;&quot;&gt;m&lt;sub style=&quot;font-size: 16px;&quot;&gt;s&lt;/sub&gt;&lt;/i&gt;" style="edgeStyle=none;html=1;strokeWidth=1;fontSize=16;fontFamily=Helvetica;shadow=0;labelBackgroundColor=none;" parent="1" edge="1">
                    <mxGeometry x="0.1591" y="21" relative="1" as="geometry">
                        <mxPoint x="783" y="160" as="sourcePoint"/>
                        <mxPoint x="802" y="90" as="targetPoint"/>
                        <mxPoint as="offset"/>
                    </mxGeometry>
                </mxCell>
                <mxCell id="142" value="&lt;font style=&quot;font-size: 12px;&quot;&gt;Measure&lt;/font&gt;" style="rounded=1;whiteSpace=wrap;html=1;fontFamily=Helvetica;fontSize=16;fontColor=#9673A6;shadow=0;verticalAlign=bottom;" parent="1" vertex="1">
                    <mxGeometry x="722" y="220" width="50" height="20" as="geometry"/>
                </mxCell>
                <mxCell id="146" value="&lt;font style=&quot;font-size: 13px;&quot;&gt;Rotate&lt;/font&gt;" style="rounded=1;whiteSpace=wrap;html=1;fontFamily=Helvetica;fontSize=16;fontColor=#9673A6;shadow=0;verticalAlign=bottom;" parent="1" vertex="1">
                    <mxGeometry x="672" y="220" width="40" height="20" as="geometry"/>
                </mxCell>
                <mxCell id="155" value="Client CNPU" style="text;html=1;align=center;verticalAlign=middle;whiteSpace=wrap;rounded=0;fontStyle=2;fontSize=16;fontFamily=Helvetica;shadow=0;" parent="1" vertex="1">
                    <mxGeometry x="20" y="495" width="60" height="30" as="geometry"/>
                </mxCell>
                <mxCell id="156" value="Client QNPU" style="text;html=1;align=center;verticalAlign=middle;whiteSpace=wrap;rounded=0;fontStyle=2;fontSize=16;fontFamily=Helvetica;shadow=0;" parent="1" vertex="1">
                    <mxGeometry x="20" y="425" width="60" height="30" as="geometry"/>
                </mxCell>
                <mxCell id="157" value="Client QDevice" style="text;html=1;align=center;verticalAlign=middle;whiteSpace=wrap;rounded=0;fontStyle=2;fontSize=16;fontFamily=Helvetica;shadow=0;" parent="1" vertex="1">
                    <mxGeometry x="20" y="355" width="60" height="30" as="geometry"/>
                </mxCell>
                <mxCell id="193" value="Live server qubit" style="text;html=1;strokeColor=none;fillColor=none;align=center;verticalAlign=middle;whiteSpace=wrap;rounded=0;shadow=0;labelBackgroundColor=none;fontFamily=Helvetica;fontSize=16;fontColor=#FF0000;opacity=70;fontStyle=1" parent="1" vertex="1">
                    <mxGeometry x="469" y="226" width="137" height="30" as="geometry"/>
                </mxCell>
                <mxCell id="215" value="Await&amp;nbsp;&lt;i style=&quot;border-color: var(--border-color); font-size: 16px;&quot;&gt;δ&lt;/i&gt;" style="text;html=1;align=center;verticalAlign=middle;whiteSpace=wrap;rounded=0;fontFamily=Helvetica;fontSize=16;shadow=0;fontStyle=1;fontColor=#BA767A;" parent="1" vertex="1">
                    <mxGeometry x="440" y="60" width="100" height="30" as="geometry"/>
                </mxCell>
                <mxCell id="224" value="C1" style="edgeStyle=none;html=1;shadow=0;strokeWidth=1;fontFamily=Helvetica;fontSize=16;fontColor=#000000;strokeColor=#000000;labelBackgroundColor=none;" parent="1" edge="1">
                    <mxGeometry x="0.08" y="16" relative="1" as="geometry">
                        <mxPoint x="200" y="510" as="sourcePoint"/>
                        <mxPoint x="230" y="440" as="targetPoint"/>
                        <mxPoint as="offset"/>
                    </mxGeometry>
                </mxCell>
                <mxCell id="225" value="" style="endArrow=none;dashed=1;html=1;strokeWidth=2;fontSize=16;fontFamily=Helvetica;shadow=0;endFill=1;" parent="1" target="126" edge="1">
                    <mxGeometry width="50" height="50" relative="1" as="geometry">
                        <mxPoint x="90" y="370" as="sourcePoint"/>
                        <mxPoint x="1040" y="370" as="targetPoint"/>
                    </mxGeometry>
                </mxCell>
                <mxCell id="126" value="&lt;font style=&quot;font-size: 13px;&quot;&gt;Rotate&lt;/font&gt;" style="rounded=1;whiteSpace=wrap;html=1;fontFamily=Helvetica;fontSize=16;fontColor=#D79B00;shadow=0;verticalAlign=bottom;" parent="1" vertex="1">
                    <mxGeometry x="310" y="360" width="40" height="20" as="geometry"/>
                </mxCell>
                <mxCell id="227" value="" style="endArrow=none;dashed=1;html=1;strokeWidth=2;fontSize=16;fontFamily=Helvetica;shadow=0;endFill=1;startArrow=none;" parent="1" source="126" target="226" edge="1">
                    <mxGeometry width="50" height="50" relative="1" as="geometry">
                        <mxPoint x="380" y="370" as="sourcePoint"/>
                        <mxPoint x="1040" y="370" as="targetPoint"/>
                    </mxGeometry>
                </mxCell>
                <mxCell id="226" value="&lt;font style=&quot;font-size: 12px;&quot;&gt;Measure&lt;/font&gt;" style="rounded=1;whiteSpace=wrap;html=1;fontFamily=Helvetica;fontSize=16;fontColor=#D79B00;shadow=0;verticalAlign=bottom;" parent="1" vertex="1">
                    <mxGeometry x="360" y="360" width="50" height="20" as="geometry"/>
                </mxCell>
                <mxCell id="279" value="Execute S2" style="rounded=1;whiteSpace=wrap;html=1;fontFamily=Helvetica;fontSize=16;fontColor=#9673A6;shadow=0;" parent="1" vertex="1">
                    <mxGeometry x="672" y="148.75" width="110" height="21.25" as="geometry"/>
                </mxCell>
                <mxCell id="117" value="Execute S1" style="rounded=1;whiteSpace=wrap;html=1;fontFamily=Helvetica;fontSize=16;fontColor=#6C8EBF;shadow=0;" parent="1" vertex="1">
                    <mxGeometry x="230" y="148.75" width="160" height="21.25" as="geometry"/>
                </mxCell>
                <mxCell id="284" value="" style="group;fontFamily=Helvetica;fontSize=16;" parent="1" vertex="1" connectable="0">
                    <mxGeometry x="300" y="245" width="420" height="17" as="geometry"/>
                </mxCell>
                <mxCell id="192" value="" style="endArrow=none;html=1;shadow=0;strokeColor=#e42536;fontFamily=Helvetica;fontSize=16;fontColor=#D79B00;strokeWidth=6;" parent="284" edge="1">
                    <mxGeometry width="50" height="50" relative="1" as="geometry">
                        <mxPoint y="9" as="sourcePoint"/>
                        <mxPoint x="420" y="9" as="targetPoint"/>
                    </mxGeometry>
                </mxCell>
                <mxCell id="216" value="" style="endArrow=none;html=1;shadow=0;strokeColor=#FF0000;fontFamily=Helvetica;fontSize=16;fontColor=#D79B00;strokeWidth=6;" parent="284" edge="1">
                    <mxGeometry width="50" height="50" relative="1" as="geometry">
                        <mxPoint x="1.2676056338028168" as="sourcePoint"/>
                        <mxPoint x="1.2676056338028168" y="17" as="targetPoint"/>
                    </mxGeometry>
                </mxCell>
                <mxCell id="217" value="" style="endArrow=none;html=1;shadow=0;strokeColor=#FF0000;fontFamily=Helvetica;fontSize=16;fontColor=#D79B00;strokeWidth=6;" parent="284" edge="1">
                    <mxGeometry width="50" height="50" relative="1" as="geometry">
                        <mxPoint x="420.0016717697489" as="sourcePoint"/>
                        <mxPoint x="420.0016717697489" y="17" as="targetPoint"/>
                    </mxGeometry>
                </mxCell>
                <mxCell id="121" value="&lt;font style=&quot;font-size: 13px;&quot;&gt;Rotate to&amp;nbsp;Φ&lt;sup style=&quot;border-color: var(--border-color);&quot;&gt;+&lt;/sup&gt;&lt;/font&gt;" style="rounded=1;whiteSpace=wrap;html=1;fontFamily=Helvetica;fontSize=16;fontColor=#6C8EBF;shadow=0;labelBackgroundColor=none;spacing=2;verticalAlign=bottom;" parent="1" vertex="1">
                    <mxGeometry x="300" y="220" width="80" height="20" as="geometry"/>
                </mxCell>
                <mxCell id="131" value="Compute&amp;nbsp;&lt;i style=&quot;border-color: var(--border-color); font-size: 16px;&quot;&gt;δ&lt;/i&gt;" style="rounded=1;whiteSpace=wrap;html=1;fontFamily=Helvetica;fontSize=16;fontColor=#FFFFFF;strokeColor=#000000;shadow=0;fillColor=#E42536;" parent="1" vertex="1">
                    <mxGeometry x="440" y="490" width="90" height="40" as="geometry"/>
                </mxCell>
                <mxCell id="313" value="Prepare S1" style="rounded=1;whiteSpace=wrap;html=1;fontFamily=Helvetica;fontSize=16;fontColor=#000000;strokeColor=#000000;shadow=0;" parent="1" vertex="1">
                    <mxGeometry x="117.5" y="70" width="82.5" height="40" as="geometry"/>
                </mxCell>
                <mxCell id="315" value="Prepare C1" style="rounded=1;whiteSpace=wrap;html=1;fontFamily=Helvetica;fontSize=16;fontColor=#000000;strokeColor=#000000;shadow=0;" parent="1" vertex="1">
                    <mxGeometry x="110" y="490" width="90" height="40" as="geometry"/>
                </mxCell>
                <mxCell id="316" value="Create&lt;div style=&quot;font-size: 12px;&quot;&gt;EPR&lt;/div&gt;" style="endArrow=classic;html=1;labelBackgroundColor=none;horizontal=0;fontFamily=Helvetica;fontSize=12;" parent="1" edge="1">
                    <mxGeometry x="-0.0847" width="50" height="50" relative="1" as="geometry">
                        <mxPoint x="235" y="429" as="sourcePoint"/>
                        <mxPoint x="235" y="370" as="targetPoint"/>
                        <mxPoint as="offset"/>
                    </mxGeometry>
                </mxCell>
                <mxCell id="318" value="EPR&lt;div style=&quot;font-size: 12px;&quot;&gt;&lt;span style=&quot;background-color: initial; font-size: 12px;&quot;&gt;success&lt;/span&gt;&lt;/div&gt;" style="endArrow=classic;html=1;labelBackgroundColor=none;horizontal=0;spacing=2;spacingTop=0;spacingBottom=0;spacingRight=0;fontFamily=Helvetica;fontSize=12;" parent="1" edge="1">
                    <mxGeometry width="50" height="50" relative="1" as="geometry">
                        <mxPoint x="270" y="370.5" as="sourcePoint"/>
                        <mxPoint x="270" y="429.5" as="targetPoint"/>
                        <mxPoint as="offset"/>
                    </mxGeometry>
                </mxCell>
                <mxCell id="337" value="" style="group;fontFamily=Helvetica;fontSize=16;" parent="1" vertex="1" connectable="0">
                    <mxGeometry x="250" y="216" width="70" height="139" as="geometry"/>
                </mxCell>
                <mxCell id="335" value="" style="curved=1;endArrow=none;html=1;endFill=0;fillColor=#e1d5e7;strokeColor=#9933FF;fontFamily=Helvetica;fontSize=16;" parent="337" source="334" edge="1">
                    <mxGeometry width="50" height="50" relative="1" as="geometry">
                        <mxPoint x="-10" y="68" as="sourcePoint"/>
                        <mxPoint x="34" y="40" as="targetPoint"/>
                        <Array as="points">
                            <mxPoint x="20" y="103"/>
                            <mxPoint x="60" y="74"/>
                            <mxPoint y="53"/>
                        </Array>
                    </mxGeometry>
                </mxCell>
                <mxCell id="336" value="" style="curved=1;endArrow=none;html=1;endFill=0;fillColor=#e1d5e7;strokeColor=#9933FF;fontFamily=Helvetica;fontSize=16;" parent="337" target="325" edge="1">
                    <mxGeometry width="50" height="50" relative="1" as="geometry">
                        <mxPoint x="36" y="127" as="sourcePoint"/>
                        <mxPoint x="30" y="18" as="targetPoint"/>
                        <Array as="points">
                            <mxPoint x="50" y="103"/>
                            <mxPoint x="10" y="74"/>
                            <mxPoint x="70" y="53"/>
                        </Array>
                    </mxGeometry>
                </mxCell>
                <mxCell id="328" value="" style="group;fontFamily=Helvetica;fontSize=16;" parent="337" vertex="1" connectable="0">
                    <mxGeometry x="24" y="20" width="25" height="32" as="geometry"/>
                </mxCell>
                <mxCell id="327" value="" style="endArrow=classic;html=1;strokeWidth=3;endSize=0;strokeColor=#9933FF;fontFamily=Helvetica;fontSize=16;" parent="328" edge="1">
                    <mxGeometry width="50" height="50" relative="1" as="geometry">
                        <mxPoint y="32" as="sourcePoint"/>
                        <mxPoint x="25" as="targetPoint"/>
                    </mxGeometry>
                </mxCell>
                <mxCell id="325" value="" style="ellipse;whiteSpace=wrap;html=1;aspect=fixed;fillColor=#9933FF;strokeColor=#9933FF;gradientColor=#CC99FF;gradientDirection=north;fontFamily=Helvetica;fontSize=16;" parent="328" vertex="1">
                    <mxGeometry x="1" y="8" width="20" height="20" as="geometry"/>
                </mxCell>
                <mxCell id="332" value="" style="group;fontFamily=Helvetica;fontSize=16;" parent="337" vertex="1" connectable="0">
                    <mxGeometry x="25" y="111" width="25" height="32" as="geometry"/>
                </mxCell>
                <mxCell id="333" value="" style="endArrow=classic;html=1;strokeWidth=3;endSize=0;strokeColor=#9933FF;fontFamily=Helvetica;fontSize=16;" parent="332" edge="1">
                    <mxGeometry width="50" height="50" relative="1" as="geometry">
                        <mxPoint y="32" as="sourcePoint"/>
                        <mxPoint x="25" as="targetPoint"/>
                    </mxGeometry>
                </mxCell>
                <mxCell id="334" value="" style="ellipse;whiteSpace=wrap;html=1;aspect=fixed;fillColor=#9933FF;strokeColor=#9933FF;gradientColor=#CC99FF;gradientDirection=north;fontFamily=Helvetica;fontSize=16;" parent="332" vertex="1">
                    <mxGeometry x="1" y="8" width="20" height="20" as="geometry"/>
                </mxCell>
                <mxCell id="355" value="Create&lt;div style=&quot;font-size: 12px;&quot;&gt;EPR&lt;/div&gt;" style="endArrow=classic;html=1;labelBackgroundColor=none;exitX=0.031;exitY=0.989;exitDx=0;exitDy=0;exitPerimeter=0;horizontal=0;fontFamily=Helvetica;fontSize=12;" parent="1" source="117" edge="1">
                    <mxGeometry x="0.0384" width="50" height="50" relative="1" as="geometry">
                        <mxPoint x="245" y="439" as="sourcePoint"/>
                        <mxPoint x="235" y="228" as="targetPoint"/>
                        <mxPoint as="offset"/>
                    </mxGeometry>
                </mxCell>
                <mxCell id="356" value="EPR&lt;div style=&quot;font-size: 12px;&quot;&gt;&lt;span style=&quot;background-color: initial; font-size: 12px;&quot;&gt;success&lt;/span&gt;&lt;/div&gt;" style="endArrow=classic;html=1;labelBackgroundColor=none;entryX=0.25;entryY=1;entryDx=0;entryDy=0;horizontal=0;fontFamily=Helvetica;fontSize=12;" parent="1" target="117" edge="1">
                    <mxGeometry x="-0.0196" width="50" height="50" relative="1" as="geometry">
                        <mxPoint x="270" y="228.84615384615384" as="sourcePoint"/>
                        <mxPoint x="280" y="439" as="targetPoint"/>
                        <mxPoint as="offset"/>
                    </mxGeometry>
                </mxCell>
                <mxCell id="358" value="" style="endArrow=classic;html=1;fontFamily=Helvetica;fontSize=16;" parent="1" edge="1">
                    <mxGeometry width="50" height="50" relative="1" as="geometry">
                        <mxPoint x="308" y="430" as="sourcePoint"/>
                        <mxPoint x="308" y="370" as="targetPoint"/>
                    </mxGeometry>
                </mxCell>
                <mxCell id="359" value="" style="endArrow=classic;html=1;fontFamily=Helvetica;fontSize=16;" parent="1" edge="1">
                    <mxGeometry width="50" height="50" relative="1" as="geometry">
                        <mxPoint x="352" y="369" as="sourcePoint"/>
                        <mxPoint x="352" y="429" as="targetPoint"/>
                    </mxGeometry>
                </mxCell>
                <mxCell id="360" value="" style="endArrow=classic;html=1;fontFamily=Helvetica;fontSize=16;" parent="1" edge="1">
                    <mxGeometry width="50" height="50" relative="1" as="geometry">
                        <mxPoint x="412" y="370" as="sourcePoint"/>
                        <mxPoint x="412" y="429" as="targetPoint"/>
                    </mxGeometry>
                </mxCell>
                <mxCell id="361" value="" style="endArrow=classic;html=1;fontFamily=Helvetica;fontSize=16;" parent="1" edge="1">
                    <mxGeometry width="50" height="50" relative="1" as="geometry">
                        <mxPoint x="357" y="429" as="sourcePoint"/>
                        <mxPoint x="358" y="370" as="targetPoint"/>
                    </mxGeometry>
                </mxCell>
                <mxCell id="362" value="" style="endArrow=classic;html=1;exitX=0.406;exitY=0.962;exitDx=0;exitDy=0;exitPerimeter=0;fontFamily=Helvetica;fontSize=16;" parent="1" source="117" edge="1">
                    <mxGeometry width="50" height="50" relative="1" as="geometry">
                        <mxPoint x="410" y="280" as="sourcePoint"/>
                        <mxPoint x="295" y="232" as="targetPoint"/>
                    </mxGeometry>
                </mxCell>
                <mxCell id="363" value="" style="endArrow=classic;html=1;entryX=0.961;entryY=0.962;entryDx=0;entryDy=0;entryPerimeter=0;fontFamily=Helvetica;fontSize=16;" parent="1" target="117" edge="1">
                    <mxGeometry width="50" height="50" relative="1" as="geometry">
                        <mxPoint x="384" y="230" as="sourcePoint"/>
                        <mxPoint x="305" y="242" as="targetPoint"/>
                    </mxGeometry>
                </mxCell>
                <mxCell id="381" value="" style="group;fontFamily=Helvetica;fontSize=16;" parent="1" vertex="1" connectable="0">
                    <mxGeometry x="520" y="10" width="25" height="32" as="geometry"/>
                </mxCell>
                <mxCell id="382" value="" style="endArrow=classic;html=1;strokeWidth=3;endSize=0;strokeColor=#9933FF;fontFamily=Helvetica;fontSize=16;" parent="381" edge="1">
                    <mxGeometry width="50" height="50" relative="1" as="geometry">
                        <mxPoint y="32" as="sourcePoint"/>
                        <mxPoint x="25" as="targetPoint"/>
                    </mxGeometry>
                </mxCell>
                <mxCell id="383" value="" style="ellipse;whiteSpace=wrap;html=1;aspect=fixed;fillColor=#9933FF;strokeColor=#9933FF;gradientColor=#CC99FF;gradientDirection=north;fontFamily=Helvetica;fontSize=16;" parent="381" vertex="1">
                    <mxGeometry x="1" y="8" width="20" height="20" as="geometry"/>
                </mxCell>
                <mxCell id="390" value="Qubit created" style="text;html=1;align=center;verticalAlign=middle;whiteSpace=wrap;rounded=0;fontSize=16;fontFamily=Helvetica;" parent="1" vertex="1">
                    <mxGeometry x="545" y="11" width="120" height="30" as="geometry"/>
                </mxCell>
                <mxCell id="391" value="Qubit measured" style="text;html=1;align=center;verticalAlign=middle;whiteSpace=wrap;rounded=0;fontSize=16;fontFamily=Helvetica;" parent="1" vertex="1">
                    <mxGeometry x="706" y="11" width="130" height="30" as="geometry"/>
                </mxCell>
                <mxCell id="396" value="" style="group;fontFamily=Helvetica;fontSize=16;" parent="1" vertex="1" connectable="0">
                    <mxGeometry x="220" y="230" width="47" height="140" as="geometry"/>
                </mxCell>
                <mxCell id="302" value="" style="endArrow=classic;html=1;startArrow=classic;startFill=1;fontFamily=Helvetica;fontSize=16;" parent="396" edge="1">
                    <mxGeometry width="50" height="50" relative="1" as="geometry">
                        <mxPoint x="20" as="sourcePoint"/>
                        <mxPoint x="20" y="140" as="targetPoint"/>
                    </mxGeometry>
                </mxCell>
                <mxCell id="392" value="" style="endArrow=classic;html=1;startArrow=classic;startFill=1;fontFamily=Helvetica;fontSize=16;" parent="396" edge="1">
                    <mxGeometry width="50" height="50" relative="1" as="geometry">
                        <mxPoint x="30" as="sourcePoint"/>
                        <mxPoint x="30" y="140" as="targetPoint"/>
                    </mxGeometry>
                </mxCell>
                <mxCell id="393" value="" style="endArrow=classic;html=1;startArrow=classic;startFill=1;fontFamily=Helvetica;fontSize=16;" parent="396" edge="1">
                    <mxGeometry width="50" height="50" relative="1" as="geometry">
                        <mxPoint x="47" as="sourcePoint"/>
                        <mxPoint x="47" y="140" as="targetPoint"/>
                    </mxGeometry>
                </mxCell>
                <mxCell id="394" value="..." style="text;html=1;strokeColor=none;fillColor=none;align=center;verticalAlign=middle;whiteSpace=wrap;rounded=0;fontFamily=Helvetica;fontSize=16;" parent="396" vertex="1">
                    <mxGeometry x="33" y="61" width="10" height="10" as="geometry"/>
                </mxCell>
                <mxCell id="395" value="Attempts" style="text;html=1;strokeColor=none;fillColor=none;align=center;verticalAlign=middle;whiteSpace=wrap;rounded=0;horizontal=0;fontFamily=Helvetica;fontSize=16;" parent="396" vertex="1">
                    <mxGeometry y="38" width="17.5" height="61" as="geometry"/>
                </mxCell>
                <mxCell id="397" value="" style="endArrow=classic;html=1;fontFamily=Helvetica;fontSize=16;entryX=0.104;entryY=-0.006;entryDx=0;entryDy=0;entryPerimeter=0;" parent="1" target="146" edge="1">
                    <mxGeometry width="50" height="50" relative="1" as="geometry">
                        <mxPoint x="676" y="169" as="sourcePoint"/>
                        <mxPoint x="694" y="218" as="targetPoint"/>
                    </mxGeometry>
                </mxCell>
                <mxCell id="399" value="" style="endArrow=classic;html=1;fontFamily=Helvetica;fontSize=16;" parent="1" edge="1">
                    <mxGeometry width="50" height="50" relative="1" as="geometry">
                        <mxPoint x="708" y="220" as="sourcePoint"/>
                        <mxPoint x="708" y="169" as="targetPoint"/>
                    </mxGeometry>
                </mxCell>
                <mxCell id="400" value="" style="endArrow=classic;html=1;fontFamily=Helvetica;fontSize=16;entryX=0.107;entryY=-0.019;entryDx=0;entryDy=0;entryPerimeter=0;exitX=0.5;exitY=1;exitDx=0;exitDy=0;" parent="1" source="279" target="142" edge="1">
                    <mxGeometry width="50" height="50" relative="1" as="geometry">
                        <mxPoint x="718" y="230" as="sourcePoint"/>
                        <mxPoint x="718" y="179" as="targetPoint"/>
                    </mxGeometry>
                </mxCell>
                <mxCell id="401" value="" style="endArrow=classic;html=1;fontFamily=Helvetica;fontSize=16;entryX=0.889;entryY=0.997;entryDx=0;entryDy=0;entryPerimeter=0;exitX=0.949;exitY=-0.003;exitDx=0;exitDy=0;exitPerimeter=0;" parent="1" source="142" target="279" edge="1">
                    <mxGeometry width="50" height="50" relative="1" as="geometry">
                        <mxPoint x="737" y="180" as="sourcePoint"/>
                        <mxPoint x="737.35" y="229.61999999999995" as="targetPoint"/>
                    </mxGeometry>
                </mxCell>
                <mxCell id="403" value="" style="group" parent="1" vertex="1" connectable="0">
                    <mxGeometry x="374" y="327" width="25" height="32" as="geometry"/>
                </mxCell>
                <mxCell id="339" value="" style="group;fontFamily=Helvetica;fontSize=16;" parent="403" vertex="1" connectable="0">
                    <mxGeometry width="25" height="32" as="geometry"/>
                </mxCell>
                <mxCell id="340" value="" style="endArrow=classic;html=1;strokeWidth=3;endSize=0;strokeColor=#4D4D4D;fillColor=#f5f5f5;fontFamily=Helvetica;fontSize=16;" parent="339" edge="1">
                    <mxGeometry width="50" height="50" relative="1" as="geometry">
                        <mxPoint y="32" as="sourcePoint"/>
                        <mxPoint x="25" as="targetPoint"/>
                    </mxGeometry>
                </mxCell>
                <mxCell id="341" value="" style="ellipse;whiteSpace=wrap;html=1;aspect=fixed;fillColor=#f5f5f5;strokeColor=#666666;gradientDirection=north;fontColor=#333333;dashed=1;fontFamily=Helvetica;fontSize=16;" parent="339" vertex="1">
                    <mxGeometry x="1" y="8" width="20" height="20" as="geometry"/>
                </mxCell>
                <mxCell id="342" value="" style="endArrow=none;html=1;strokeColor=#FF0000;fontFamily=Helvetica;fontSize=16;strokeWidth=2;" parent="403" edge="1">
                    <mxGeometry width="50" height="50" relative="1" as="geometry">
                        <mxPoint x="1" y="8" as="sourcePoint"/>
                        <mxPoint x="21" y="28" as="targetPoint"/>
                    </mxGeometry>
                </mxCell>
                <mxCell id="343" value="" style="endArrow=none;html=1;strokeColor=#FF0000;fontFamily=Helvetica;fontSize=16;strokeWidth=2;" parent="403" edge="1">
                    <mxGeometry width="50" height="50" relative="1" as="geometry">
                        <mxPoint x="1" y="28" as="sourcePoint"/>
                        <mxPoint x="21" y="8" as="targetPoint"/>
                    </mxGeometry>
                </mxCell>
                <mxCell id="404" value="" style="group" parent="1" vertex="1" connectable="0">
                    <mxGeometry x="735" y="235" width="25" height="32" as="geometry"/>
                </mxCell>
                <mxCell id="405" value="" style="group;fontFamily=Helvetica;fontSize=16;" parent="404" vertex="1" connectable="0">
                    <mxGeometry width="25" height="32" as="geometry"/>
                </mxCell>
                <mxCell id="406" value="" style="endArrow=classic;html=1;strokeWidth=3;endSize=0;strokeColor=#4D4D4D;fillColor=#f5f5f5;fontFamily=Helvetica;fontSize=16;" parent="405" edge="1">
                    <mxGeometry width="50" height="50" relative="1" as="geometry">
                        <mxPoint y="32" as="sourcePoint"/>
                        <mxPoint x="25" as="targetPoint"/>
                    </mxGeometry>
                </mxCell>
                <mxCell id="407" value="" style="ellipse;whiteSpace=wrap;html=1;aspect=fixed;fillColor=#f5f5f5;strokeColor=#666666;gradientDirection=north;fontColor=#333333;dashed=1;fontFamily=Helvetica;fontSize=16;" parent="405" vertex="1">
                    <mxGeometry x="1" y="8" width="20" height="20" as="geometry"/>
                </mxCell>
                <mxCell id="408" value="" style="endArrow=none;html=1;strokeColor=#FF0000;fontFamily=Helvetica;fontSize=16;strokeWidth=2;" parent="404" edge="1">
                    <mxGeometry width="50" height="50" relative="1" as="geometry">
                        <mxPoint x="1" y="8" as="sourcePoint"/>
                        <mxPoint x="21" y="28" as="targetPoint"/>
                    </mxGeometry>
                </mxCell>
                <mxCell id="409" value="" style="endArrow=none;html=1;strokeColor=#FF0000;fontFamily=Helvetica;fontSize=16;strokeWidth=2;" parent="404" edge="1">
                    <mxGeometry width="50" height="50" relative="1" as="geometry">
                        <mxPoint x="1" y="28" as="sourcePoint"/>
                        <mxPoint x="21" y="8" as="targetPoint"/>
                    </mxGeometry>
                </mxCell>
                <mxCell id="416" value="" style="group" parent="1" vertex="1" connectable="0">
                    <mxGeometry x="681" y="10" width="25" height="32" as="geometry"/>
                </mxCell>
                <mxCell id="417" value="" style="group;fontFamily=Helvetica;fontSize=16;" parent="416" vertex="1" connectable="0">
                    <mxGeometry width="25" height="32" as="geometry"/>
                </mxCell>
                <mxCell id="418" value="" style="endArrow=classic;html=1;strokeWidth=3;endSize=0;strokeColor=#4D4D4D;fillColor=#f5f5f5;fontFamily=Helvetica;fontSize=16;" parent="417" edge="1">
                    <mxGeometry width="50" height="50" relative="1" as="geometry">
                        <mxPoint y="32" as="sourcePoint"/>
                        <mxPoint x="25" as="targetPoint"/>
                    </mxGeometry>
                </mxCell>
                <mxCell id="419" value="" style="ellipse;whiteSpace=wrap;html=1;aspect=fixed;fillColor=#f5f5f5;strokeColor=#666666;gradientDirection=north;fontColor=#333333;dashed=1;fontFamily=Helvetica;fontSize=16;" parent="417" vertex="1">
                    <mxGeometry x="1" y="8" width="20" height="20" as="geometry"/>
                </mxCell>
                <mxCell id="420" value="" style="endArrow=none;html=1;strokeColor=#FF0000;fontFamily=Helvetica;fontSize=16;strokeWidth=2;" parent="416" edge="1">
                    <mxGeometry width="50" height="50" relative="1" as="geometry">
                        <mxPoint x="1" y="8" as="sourcePoint"/>
                        <mxPoint x="21" y="28" as="targetPoint"/>
                    </mxGeometry>
                </mxCell>
                <mxCell id="421" value="" style="endArrow=none;html=1;strokeColor=#FF0000;fontFamily=Helvetica;fontSize=16;strokeWidth=2;" parent="416" edge="1">
                    <mxGeometry width="50" height="50" relative="1" as="geometry">
                        <mxPoint x="1" y="28" as="sourcePoint"/>
                        <mxPoint x="21" y="8" as="targetPoint"/>
                    </mxGeometry>
                </mxCell>
                <mxCell id="281" value="Prepare S2" style="rounded=1;whiteSpace=wrap;html=1;fontFamily=Helvetica;fontSize=16;fontColor=#000000;strokeColor=#000000;shadow=0;fillColor=#E49095;" parent="1" vertex="1">
                    <mxGeometry x="570" y="70" width="82.5" height="40" as="geometry"/>
                </mxCell>
                <mxCell id="278" value="C1 result: &lt;i style=&quot;font-size: 16px;&quot;&gt;m&lt;sub style=&quot;font-size: 16px;&quot;&gt;c&lt;/sub&gt;&lt;/i&gt;" style="edgeStyle=none;html=1;shadow=0;strokeWidth=1;fontFamily=Helvetica;fontSize=16;fontColor=#000000;strokeColor=#000000;labelBackgroundColor=none;entryX=0;entryY=0.5;entryDx=0;entryDy=0;exitX=1;exitY=0.5;exitDx=0;exitDy=0;" parent="1" source="128" target="131" edge="1">
                    <mxGeometry x="-0.1472" y="-22" relative="1" as="geometry">
                        <mxPoint x="420" y="440" as="sourcePoint"/>
                        <mxPoint x="430" y="510" as="targetPoint"/>
                        <mxPoint as="offset"/>
                    </mxGeometry>
                </mxCell>
                <mxCell id="133" value="&lt;i style=&quot;color: rgb(0, 0, 0); font-weight: 700; text-wrap: wrap; background-color: rgb(251, 251, 251); border-color: var(--border-color); font-size: 16px;&quot;&gt;δ&lt;/i&gt;" style="edgeStyle=none;html=1;strokeWidth=1;fontFamily=Helvetica;fontSize=16;fontColor=#D79B00;shadow=0;exitX=1;exitY=0.5;exitDx=0;exitDy=0;" parent="1" source="131" edge="1">
                    <mxGeometry x="-0.1878" y="-8" relative="1" as="geometry">
                        <mxPoint x="540" y="510" as="sourcePoint"/>
                        <mxPoint x="570" y="90" as="targetPoint"/>
                        <mxPoint as="offset"/>
                    </mxGeometry>
                </mxCell>
            </root>
        </mxGraphModel>
    </diagram>
</mxfile>